<svg width="186" height="45" viewBox="0 0 186 45" fill="none" xmlns="http://www.w3.org/2000/svg">
<path d="M66.4961 29H62.5605V13.7148H57.5205V10.4395H71.5361V13.7148H66.4961V29ZM82.0098 14.54C82.2044 14.54 82.4287 14.5527 82.6826 14.5781C82.945 14.5951 83.1566 14.6204 83.3174 14.6543L83.0254 18.2852C82.8984 18.2428 82.7165 18.2132 82.4795 18.1963C82.251 18.1709 82.0521 18.1582 81.8828 18.1582C81.3835 18.1582 80.8968 18.2217 80.4229 18.3486C79.9574 18.4756 79.5384 18.6829 79.166 18.9707C78.7936 19.25 78.4974 19.6224 78.2773 20.0879C78.0658 20.5449 77.96 21.1077 77.96 21.7764V29H74.0879V14.8066H77.0205L77.5918 17.1934H77.7822C78.0615 16.7109 78.4085 16.2708 78.8232 15.873C79.2464 15.4668 79.7246 15.1452 80.2578 14.9082C80.7995 14.6628 81.3835 14.54 82.0098 14.54ZM89.7666 14.8066V29H85.8945V14.8066H89.7666ZM87.8369 9.24609C88.4124 9.24609 88.9076 9.38151 89.3223 9.65234C89.737 9.91471 89.9443 10.4098 89.9443 11.1377C89.9443 11.8571 89.737 12.3564 89.3223 12.6357C88.9076 12.9066 88.4124 13.042 87.8369 13.042C87.2529 13.042 86.7536 12.9066 86.3389 12.6357C85.9326 12.3564 85.7295 11.8571 85.7295 11.1377C85.7295 10.4098 85.9326 9.91471 86.3389 9.65234C86.7536 9.38151 87.2529 9.24609 87.8369 9.24609ZM101.738 14.54C103.338 14.54 104.629 15.1621 105.61 16.4062C106.601 17.6504 107.096 19.4743 107.096 21.8779C107.096 23.486 106.863 24.8402 106.397 25.9404C105.932 27.0322 105.289 27.8574 104.468 28.416C103.647 28.9746 102.703 29.2539 101.637 29.2539C100.951 29.2539 100.363 29.1693 99.8721 29C99.3812 28.8223 98.9622 28.598 98.6152 28.3271C98.2682 28.0479 97.9678 27.7516 97.7139 27.4385H97.5107C97.5785 27.777 97.6292 28.124 97.6631 28.4795C97.6969 28.835 97.7139 29.182 97.7139 29.5205V35.2461H93.8418V14.8066H96.9902L97.5361 16.6475H97.7139C97.9678 16.2666 98.2767 15.9154 98.6406 15.5938C99.0046 15.2721 99.4404 15.0182 99.9482 14.832C100.465 14.6374 101.061 14.54 101.738 14.54ZM100.494 17.6377C99.8171 17.6377 99.2796 17.7773 98.8818 18.0566C98.484 18.3359 98.1921 18.7549 98.0059 19.3135C97.8281 19.8721 97.7308 20.5788 97.7139 21.4336V21.8525C97.7139 22.7666 97.7985 23.541 97.9678 24.1758C98.1455 24.8105 98.4375 25.293 98.8438 25.623C99.2585 25.9531 99.8255 26.1182 100.545 26.1182C101.137 26.1182 101.624 25.9531 102.005 25.623C102.386 25.293 102.669 24.8105 102.855 24.1758C103.05 23.5326 103.147 22.7497 103.147 21.8271C103.147 20.4391 102.932 19.3939 102.5 18.6914C102.068 17.9889 101.4 17.6377 100.494 17.6377Z" fill="white"/>
<path d="M127.446 19.6943C127.446 21.0739 127.281 22.3392 126.951 23.4902C126.63 24.6328 126.13 25.623 125.453 26.4609C124.776 27.2988 123.917 27.9548 122.876 28.4287L127.345 33.418H122.305L118.902 29.2539C118.843 29.2539 118.792 29.2539 118.75 29.2539C118.708 29.2539 118.661 29.2539 118.61 29.2539C117.095 29.2539 115.784 29.0296 114.675 28.5811C113.566 28.124 112.648 27.4723 111.92 26.626C111.201 25.7796 110.663 24.7682 110.308 23.5918C109.952 22.4154 109.774 21.1077 109.774 19.6689C109.774 17.7477 110.088 16.0762 110.714 14.6543C111.349 13.224 112.322 12.1152 113.634 11.3281C114.946 10.541 116.613 10.1475 118.636 10.1475C120.65 10.1475 122.305 10.541 123.6 11.3281C124.903 12.1152 125.868 13.224 126.494 14.6543C127.129 16.0846 127.446 17.7646 127.446 19.6943ZM113.9 19.6943C113.9 20.9893 114.061 22.1064 114.383 23.0459C114.713 23.9769 115.225 24.6963 115.919 25.2041C116.613 25.7035 117.51 25.9531 118.61 25.9531C119.728 25.9531 120.633 25.7035 121.327 25.2041C122.021 24.6963 122.525 23.9769 122.838 23.0459C123.16 22.1064 123.32 20.9893 123.32 19.6943C123.32 17.7477 122.956 16.2158 122.229 15.0986C121.501 13.9814 120.303 13.4229 118.636 13.4229C117.527 13.4229 116.621 13.6768 115.919 14.1846C115.225 14.6839 114.713 15.4033 114.383 16.3428C114.061 17.2738 113.9 18.391 113.9 19.6943ZM144.014 14.8066V29H141.043L140.522 27.1846H140.319C140.015 27.667 139.634 28.0605 139.177 28.3652C138.72 28.6699 138.216 28.8942 137.666 29.0381C137.116 29.182 136.545 29.2539 135.952 29.2539C134.937 29.2539 134.052 29.0762 133.299 28.7207C132.546 28.3568 131.957 27.7939 131.534 27.0322C131.119 26.2705 130.912 25.2803 130.912 24.0615V14.8066H134.784V23.0967C134.784 24.1123 134.966 24.8783 135.33 25.3945C135.694 25.9108 136.274 26.1689 137.069 26.1689C137.856 26.1689 138.474 25.9912 138.923 25.6357C139.371 25.2718 139.685 24.7428 139.862 24.0488C140.049 23.3464 140.142 22.4915 140.142 21.4844V14.8066H144.014ZM153.929 14.54C155.241 14.54 156.37 14.7939 157.318 15.3018C158.266 15.8011 158.998 16.529 159.515 17.4854C160.031 18.4417 160.289 19.6097 160.289 20.9893V22.8682H151.136C151.178 23.96 151.504 24.819 152.113 25.4453C152.731 26.0632 153.586 26.3721 154.678 26.3721C155.583 26.3721 156.413 26.279 157.166 26.0928C157.919 25.9066 158.694 25.6273 159.489 25.2549V28.251C158.787 28.598 158.05 28.8519 157.28 29.0127C156.519 29.1735 155.592 29.2539 154.5 29.2539C153.078 29.2539 151.817 28.9915 150.717 28.4668C149.625 27.9421 148.766 27.1423 148.14 26.0674C147.522 24.9925 147.213 23.6383 147.213 22.0049C147.213 20.346 147.492 18.9665 148.051 17.8662C148.618 16.7575 149.405 15.9281 150.412 15.3779C151.419 14.8193 152.591 14.54 153.929 14.54ZM153.954 17.2949C153.201 17.2949 152.575 17.5361 152.075 18.0186C151.584 18.501 151.301 19.2585 151.225 20.291H156.658C156.65 19.7155 156.544 19.2035 156.341 18.7549C156.146 18.3063 155.85 17.9508 155.452 17.6885C155.063 17.4261 154.563 17.2949 153.954 17.2949ZM173.34 24.7852C173.34 25.75 173.111 26.5667 172.654 27.2354C172.206 27.8955 171.533 28.3991 170.636 28.7461C169.739 29.0846 168.621 29.2539 167.284 29.2539C166.294 29.2539 165.443 29.1904 164.732 29.0635C164.03 28.9365 163.319 28.7249 162.6 28.4287V25.2295C163.37 25.5765 164.195 25.8643 165.075 26.0928C165.964 26.3128 166.743 26.4229 167.411 26.4229C168.164 26.4229 168.702 26.3128 169.023 26.0928C169.354 25.8643 169.519 25.568 169.519 25.2041C169.519 24.9671 169.451 24.7555 169.315 24.5693C169.188 24.3747 168.909 24.1589 168.478 23.9219C168.046 23.6764 167.369 23.359 166.446 22.9697C165.558 22.5973 164.826 22.2207 164.25 21.8398C163.683 21.459 163.26 21.0104 162.98 20.4941C162.71 19.9694 162.574 19.305 162.574 18.501C162.574 17.1891 163.082 16.2031 164.098 15.543C165.122 14.8743 166.489 14.54 168.198 14.54C169.078 14.54 169.916 14.6289 170.712 14.8066C171.516 14.9844 172.341 15.2679 173.188 15.6572L172.02 18.4502C171.317 18.1455 170.653 17.8958 170.026 17.7012C169.409 17.5065 168.778 17.4092 168.135 17.4092C167.568 17.4092 167.14 17.4854 166.853 17.6377C166.565 17.79 166.421 18.0228 166.421 18.3359C166.421 18.5645 166.493 18.7676 166.637 18.9453C166.789 19.123 167.077 19.3219 167.5 19.542C167.932 19.7536 168.562 20.0286 169.392 20.3672C170.196 20.6973 170.894 21.0443 171.486 21.4082C172.079 21.7637 172.536 22.208 172.857 22.7412C173.179 23.266 173.34 23.9473 173.34 24.7852ZM182.341 26.1689C182.764 26.1689 183.174 26.1266 183.572 26.042C183.979 25.9574 184.381 25.8516 184.778 25.7246V28.6064C184.364 28.7926 183.847 28.945 183.229 29.0635C182.62 29.1904 181.951 29.2539 181.224 29.2539C180.377 29.2539 179.616 29.1185 178.938 28.8477C178.27 28.5684 177.741 28.0902 177.352 27.4131C176.971 26.7275 176.78 25.7754 176.78 24.5566V17.7139H174.927V16.0762L177.06 14.7812L178.177 11.7852H180.652V14.8066H184.626V17.7139H180.652V24.5566C180.652 25.0983 180.805 25.5046 181.109 25.7754C181.423 26.0378 181.833 26.1689 182.341 26.1689Z" fill="#00B86B"/>
<path d="M45.9999 19C45.9999 27.8366 30 17.5 20.0001 24.5C1.50014 32.5 3.99986 27.8366 3.99986 19C3.99986 10.1634 13.4019 3 24.9999 3C36.5978 3 45.9999 10.1634 45.9999 19Z" fill="#00B86B"/>
<path d="M24.4955 0C10.9657 0 0 10.8159 0 24.1608C0 28.8804 1.37796 33.2789 3.75036 37C4.16955 34.031 6.74709 31.7438 9.87313 31.7438C10.7115 31.7438 11.5053 31.911 12.2366 32.2057C12.6068 30.4595 14.1809 29.1443 16.0628 29.1443C17.0617 29.1443 17.9759 29.5182 18.6671 30.1296C19.7596 25.995 23.568 22.9381 28.1032 22.9381C33.2583 22.9381 37.4724 26.8835 37.8292 31.8802C38.2484 31.7922 38.6809 31.7438 39.1269 31.7438C42.2529 31.7438 44.8305 34.031 45.2496 37C47.622 33.2789 49 28.8804 49 24.1608C48.9866 10.8159 38.0209 0 24.4955 0ZM39.2027 8.53745L25.8557 16.5867L22.0785 21.8648C21.5434 22.6126 20.7719 23.1624 19.8845 23.4351L17.6905 24.1037L19.1888 20.5233L10.5554 24.4775C9.31571 25.1505 8.00464 25.6827 6.64006 26.0698C6.07818 26.2281 5.63224 25.5991 5.97561 25.1329L7.64343 22.8545L4.96778 21.7813L7.70586 20.0659L10.8497 20.2462L16.8521 16.8022L4.5709 15.3243L8.19194 13.4637C8.70923 13.1954 9.28003 13.0415 9.86422 13.0019L25.3874 12.021L32.4333 8.0844C34.1189 7.14313 36.09 6.81324 37.9942 7.16072L38.9842 7.34106C39.5817 7.44662 39.7289 8.22515 39.2161 8.53745H39.2027Z" fill="white"/>
</svg>
